<svg fill="none" height="92" viewBox="0 0 92 92" width="92" xmlns="http://www.w3.org/2000/svg"><rect fill="#fff" height="91" rx="45.16" width="90.3199" x=".5" y=".5"/><path d="m22.6354 66h8.4828v-20.6008l-12.1182-9.0887v26.0541c0 2.0116 1.6299 3.6354 3.6354 3.6354z" fill="#4285f4"/><path d="m60.2012 66h8.4827c2.0116 0 3.6354-1.6298 3.6354-3.6354v-26.0541l-12.1181 9.0887" fill="#34a853"/><path d="m60.2012 29.6458v15.7536l12.1181-9.0886v-4.8473c0-4.4959-5.132-7.0588-8.725-4.3626" fill="#fbbc04"/><path d="m31.1172 45.3991v-15.7536l14.5418 10.9064 14.5418-10.9064v15.7536l-14.5418 10.9064" fill="#ea4335"/><path d="m19 31.4635v4.8473l12.1182 9.0886v-15.7536l-3.3931-2.5449c-3.5991-2.6962-8.7251-.1333-8.7251 4.3626z" fill="#c5221f"/><rect height="91" rx="45.16" stroke="#c4cfe3" width="90.3199" x=".5" y=".5"/></svg>