<svg id="visual" viewBox="0 0 900 600" width="900" height="600" xmlns="http://www.w3.org/2000/svg" xmlns:xlink="http://www.w3.org/1999/xlink" version="1.1"><path d="M0 187L82 133L164 241L245 259L327 157L409 163L491 259L573 211L655 181L736 133L818 145L900 211L900 0L818 0L736 0L655 0L573 0L491 0L409 0L327 0L245 0L164 0L82 0L0 0Z" fill="#00cc8e"></path><path d="M0 337L82 259L164 349L245 349L327 349L409 289L491 361L573 367L655 367L736 355L818 307L900 337L900 209L818 143L736 131L655 179L573 209L491 257L409 161L327 155L245 257L164 239L82 131L0 185Z" fill="#00b98a"></path><path d="M0 427L82 397L164 481L245 475L327 481L409 415L491 463L573 415L655 445L736 493L818 445L900 463L900 335L818 305L736 353L655 365L573 365L491 359L409 287L327 347L245 347L164 347L82 257L0 335Z" fill="#00a784"></path><path d="M0 511L82 481L164 523L245 535L327 547L409 493L491 565L573 511L655 517L736 553L818 493L900 547L900 461L818 443L736 491L655 443L573 413L491 461L409 413L327 479L245 473L164 479L82 395L0 425Z" fill="#00957c"></path><path d="M0 601L82 601L164 601L245 601L327 601L409 601L491 601L573 601L655 601L736 601L818 601L900 601L900 545L818 491L736 551L655 515L573 509L491 563L409 491L327 545L245 533L164 521L82 479L0 509Z" fill="#038373"></path></svg>